# xmcd CD Database Entry
#
# Track frame offsets:
# 150
# 34635
# 54620
# 80680
# 101440
# 121402
# 139912
# 163227
# 190515
# 242497
# 266512
#
# Disc length: 3876 seconds
#
# Revision: 1
# Processed by: cddbd v1.5.1PL0 Copyright (c) Steve Scherf et al.
# Submitted via: tcd 2.0b
#
DISCID=900f220b
DTITLE=Inconnu - Inconnu
DYEAR=1900
DGENRE=
TTITLE0=Piste 1
TTITLE1=Piste 2
TTITLE2=Piste 3
TTITLE3=Piste 4
TTITLE4=Piste 5
TTITLE5=Piste 6
TTITLE6=Piste 7
TTITLE7=Piste 8
TTITLE8=Piste 9
TTITLE9=Piste 10
TTITLE10=Piste 11
EXTD=
EXTT0=
EXTT1=
EXTT2=
EXTT3=
EXTT4=
EXTT5=
EXTT6=
EXTT7=
EXTT8=
EXTT9=
EXTT10=
PLAYORDER=
